<svg xmlns="http://www.w3.org/2000/svg" version="1.1" xmlns:xlink="http://www.w3.org/1999/xlink" xmlns:svgjs="http://svgjs.dev/svgjs" width="141.71" height="88.01"><svg id="SvgjsSvg1007" data-name="Warstwa 2" xmlns="http://www.w3.org/2000/svg" viewBox="0 0 141.71 88.01">
  <defs>
    <style>
      .cls-1 {
        fill: #09adff;
      }

      .cls-2 {
        fill: #ef5c97;
      }

      .cls-3 {
        fill: #49d483;
      }
    </style>
  </defs>
  <g id="SvgjsG1006">
    <g>
      <path class="cls-1" d="M32.03,24.55c10.17-.44,16.43,6.94,18.76,22.14,1.89,13.59,3.22,25.44,3.98,35.53l-19.85,5.79-.66-3.8c-5.55,2.17-11.46,3.24-17.74,3.2C6.35,85.6.88,79.47.12,69.01c0-8.81,5.77-13.91,17.31-15.32,4.99-.64,9.71-.66,14.18-.06-.32-6.96-1.55-10.58-3.68-10.86-3.78-.12-8.75,3.28-14.9,10.2L0,42.65c8.33-12.35,19-18.38,32.03-18.1ZM18.34,70.1c.64,1.37,2.47,2.07,5.49,2.11,2.49-.08,5.49-.46,8.99-1.15l-.6-5.91-5.25.06c-6.03.04-8.91,1.67-8.63,4.89Z"></path>
      <path class="cls-2" d="M77.59,24.49l-.6,15.86c7.36-7.16,13.33-10.92,17.92-11.28l8.69,16.35c-12.47,3.26-21.15,9.57-26.06,18.94l.66,22.98h-24.37l2.23-58.27,21.54-4.58Z"></path>
      <path class="cls-3" d="M133.5,0l-2.9,21.54,7.12.54,1.63,15.68-12.49.42c-4.71,18.06-4.44,27.79.78,29.2,1.89.16,3.52-.32,4.89-1.45l9.17,13.57c-5.51,5.51-12.12,8.26-19.85,8.26-8.89,0-14.38-3.56-16.47-10.68-2.33-9.85-2.17-22.88.48-39.09l-10.07-.36,2.71-15.93,10.25-.66,2.29-18.76,22.44-2.29Z"></path>
    </g>
  </g>
</svg><style>@media (prefers-color-scheme: light) { :root { filter: none; } }
@media (prefers-color-scheme: dark) { :root { filter: none; } }
</style></svg>