<svg width='24' height='24' viewBox='0 0 24 24' xmlns='http://www.w3.org/2000/svg' xmlns:xlink='http://www.w3.org/1999/xlink'><rect width='24' height='24' stroke='none' fill='#000000' opacity='0'/>


<g transform="matrix(0.77 0 0 0.77 12 12)" >
<path style="stroke: none; stroke-width: 1; stroke-dasharray: none; stroke-linecap: butt; stroke-dashoffset: 0; stroke-linejoin: miter; stroke-miterlimit: 4; fill: rgb(0,0,0); fill-rule: nonzero; opacity: 1;" transform=" translate(-15, -15)" d="M 3 7 C 2.639364083422431 6.994899710454515 2.303918635428393 7.184375296169332 2.122112278513483 7.495872849714331 C 1.9403059215985725 7.80737040325933 1.9403059215985727 8.192629596740671 2.1221122785134834 8.50412715028567 C 2.303918635428394 8.815624703830668 2.6393640834224317 9.005100289545485 3.000000000000001 9 L 27 9 C 27.360635916577568 9.005100289545485 27.696081364571608 8.815624703830668 27.877887721486516 8.504127150285669 C 28.059694078401428 8.192629596740671 28.059694078401428 7.80737040325933 27.877887721486516 7.495872849714331 C 27.696081364571608 7.184375296169332 27.360635916577568 6.994899710454515 27 7 L 3 7 z M 3 14 C 2.639364083422431 13.994899710454515 2.303918635428393 14.184375296169332 2.122112278513483 14.495872849714331 C 1.9403059215985725 14.80737040325933 1.9403059215985727 15.192629596740671 2.1221122785134834 15.50412715028567 C 2.303918635428394 15.815624703830668 2.6393640834224317 16.005100289545485 3.000000000000001 16 L 27 16 C 27.360635916577568 16.005100289545485 27.696081364571608 15.815624703830668 27.877887721486516 15.504127150285669 C 28.059694078401428 15.192629596740671 28.059694078401428 14.80737040325933 27.877887721486516 14.495872849714331 C 27.696081364571608 14.184375296169332 27.360635916577568 13.994899710454515 27 14 L 3 14 z M 3 21 C 2.639364083422431 20.994899710454515 2.303918635428393 21.184375296169332 2.122112278513483 21.49587284971433 C 1.9403059215985725 21.80737040325933 1.9403059215985727 22.192629596740673 2.1221122785134834 22.50412715028567 C 2.303918635428394 22.815624703830668 2.6393640834224317 23.005100289545485 3.000000000000001 23 L 27 23 C 27.360635916577568 23.005100289545485 27.696081364571608 22.815624703830668 27.877887721486516 22.50412715028567 C 28.059694078401428 22.19262959674067 28.059694078401428 21.80737040325933 27.877887721486516 21.49587284971433 C 27.696081364571608 21.184375296169332 27.360635916577568 20.994899710454515 27 21 L 3 21 z" stroke-linecap="round" />
</g>
</svg>